<svg xmlns="http://www.w3.org/2000/svg" xmlns:xlink="http://www.w3.org/1999/xlink" width="2000" zoomAndPan="magnify" viewBox="0 0 1500 374.999991" height="500" preserveAspectRatio="xMidYMid meet" version="1.0"><defs><g/><clipPath id="72c893a879"><path d="M 37.5 56.796875 L 375 56.796875 L 375 318.546875 L 37.5 318.546875 Z M 37.5 56.796875 " clip-rule="nonzero"/></clipPath><clipPath id="7a41163719"><rect x="0" width="996" y="0" height="236"/></clipPath></defs><g clip-path="url(#72c893a879)"><path fill="#0f0f10" d="M 268.996094 238.957031 L 314.988281 318.222656 L 238.835938 318.222656 L 192.84375 238.957031 Z M 136.609375 147.871094 L 37.765625 318.222656 L 113.917969 318.222656 L 174.539062 213.742188 L 283.671875 213.742188 L 321.890625 147.878906 L 136.609375 147.878906 Z M 87.148438 56.796875 L 125.367188 122.660156 L 336.527344 122.660156 L 374.742188 56.796875 Z M 87.148438 56.796875 " fill-opacity="1" fill-rule="nonzero"/></g><g transform="matrix(1, 0, 0, 1, 438, 70)"><g clip-path="url(#7a41163719)"><g fill="#000000" fill-opacity="1"><g transform="translate(0.611933, 188.220019)"><g><path d="M 19.828125 0.78125 C 18.785156 0.78125 17.160156 0.710938 14.953125 0.578125 C 12.753906 0.453125 10.816406 0.257812 9.140625 0 C 7.972656 -0.257812 6.96875 -0.84375 6.125 -1.75 C 5.28125 -2.65625 4.859375 -3.882812 4.859375 -5.4375 C 4.859375 -16.707031 4.890625 -26.679688 4.953125 -35.359375 C 5.015625 -44.046875 5.109375 -51.984375 5.234375 -59.171875 C 5.367188 -66.367188 5.597656 -73.300781 5.921875 -79.96875 C 6.242188 -86.644531 6.664062 -93.613281 7.1875 -100.875 C 7.582031 -103.71875 9.007812 -105.335938 11.46875 -105.734375 C 12.894531 -105.992188 14.578125 -106.1875 16.515625 -106.3125 C 18.460938 -106.445312 20.28125 -106.515625 21.96875 -106.515625 C 23.519531 -106.515625 25.460938 -106.445312 27.796875 -106.3125 C 30.128906 -106.1875 31.878906 -105.992188 33.046875 -105.734375 C 34.597656 -105.472656 35.796875 -104.851562 36.640625 -103.875 C 37.484375 -102.90625 37.707031 -101.773438 37.3125 -100.484375 C 36.664062 -98.023438 36.113281 -95.820312 35.65625 -93.875 C 35.207031 -91.925781 34.984375 -89.660156 34.984375 -87.078125 C 34.984375 -85.128906 35.5 -83.992188 36.53125 -83.671875 C 37.570312 -83.347656 38.484375 -84.222656 39.265625 -86.296875 C 42.367188 -93.679688 46.800781 -98.992188 52.5625 -102.234375 C 58.332031 -105.472656 64.78125 -107.09375 71.90625 -107.09375 C 74.894531 -107.09375 78.003906 -106.734375 81.234375 -106.015625 C 84.472656 -105.304688 87.128906 -104.367188 89.203125 -103.203125 C 91.796875 -101.773438 93.09375 -99.765625 93.09375 -97.171875 C 93.09375 -93.160156 93.0625 -89.4375 93 -86 C 92.9375 -82.570312 92.773438 -78.785156 92.515625 -74.640625 C 92.390625 -72.171875 91.382812 -70.675781 89.5 -70.15625 C 87.625 -69.644531 85.972656 -70.164062 84.546875 -71.71875 C 81.046875 -74.695312 77.382812 -76.738281 73.5625 -77.84375 C 69.738281 -78.945312 65.882812 -79.5 62 -79.5 C 57.207031 -79.5 52.703125 -78.171875 48.484375 -75.515625 C 44.273438 -72.859375 40.875 -69.035156 38.28125 -64.046875 C 35.695312 -59.054688 34.40625 -53.0625 34.40625 -46.0625 C 34.40625 -41.132812 34.566406 -36.046875 34.890625 -30.796875 C 35.210938 -25.554688 35.566406 -20.703125 35.953125 -16.234375 C 36.347656 -11.765625 36.609375 -8.164062 36.734375 -5.4375 C 36.859375 -3.757812 36.4375 -2.460938 35.46875 -1.546875 C 34.5 -0.640625 33.429688 -0.0625 32.265625 0.1875 C 30.835938 0.320312 28.925781 0.453125 26.53125 0.578125 C 24.132812 0.710938 21.898438 0.78125 19.828125 0.78125 Z M 19.828125 0.78125 "/></g></g></g><g fill="#000000" fill-opacity="1"><g transform="translate(97.009987, 188.220019)"><g><path d="M 20.984375 -115.84375 C 16.191406 -115.84375 12.273438 -117.132812 9.234375 -119.71875 C 6.191406 -122.3125 4.671875 -125.617188 4.671875 -129.640625 C 4.671875 -133.785156 6.191406 -137.148438 9.234375 -139.734375 C 12.273438 -142.328125 16.191406 -143.625 20.984375 -143.625 C 25.910156 -143.625 29.894531 -142.328125 32.9375 -139.734375 C 35.988281 -137.148438 37.515625 -133.785156 37.515625 -129.640625 C 37.515625 -125.617188 35.988281 -122.3125 32.9375 -119.71875 C 29.894531 -117.132812 25.910156 -115.84375 20.984375 -115.84375 Z M 21.375 0.78125 C 20.34375 0.78125 18.660156 0.742188 16.328125 0.671875 C 13.992188 0.609375 11.984375 0.382812 10.296875 0 C 9.128906 -0.257812 8.125 -0.875 7.28125 -1.84375 C 6.445312 -2.8125 6.03125 -4.078125 6.03125 -5.640625 C 6.03125 -16.910156 6.0625 -26.851562 6.125 -35.46875 C 6.1875 -44.082031 6.28125 -51.984375 6.40625 -59.171875 C 6.539062 -66.367188 6.738281 -73.300781 7 -79.96875 C 7.257812 -86.644531 7.644531 -93.613281 8.15625 -100.875 C 8.289062 -102.5625 8.679688 -103.757812 9.328125 -104.46875 C 9.972656 -105.175781 10.945312 -105.597656 12.25 -105.734375 C 13.664062 -105.992188 15.3125 -106.1875 17.1875 -106.3125 C 19.070312 -106.445312 20.535156 -106.515625 21.578125 -106.515625 C 22.484375 -106.515625 23.773438 -106.445312 25.453125 -106.3125 C 27.140625 -106.1875 28.632812 -105.992188 29.9375 -105.734375 C 31.226562 -105.472656 32.195312 -105.019531 32.84375 -104.375 C 33.488281 -103.726562 33.878906 -102.5625 34.015625 -100.875 C 34.535156 -93.613281 34.921875 -86.644531 35.171875 -79.96875 C 35.429688 -73.300781 35.625 -66.367188 35.75 -59.171875 C 35.882812 -51.984375 35.984375 -44.046875 36.046875 -35.359375 C 36.117188 -26.679688 36.15625 -16.707031 36.15625 -5.4375 C 36.15625 -3.882812 35.734375 -2.65625 34.890625 -1.75 C 34.046875 -0.84375 33.039062 -0.257812 31.875 0 C 30.1875 0.257812 28.273438 0.453125 26.140625 0.578125 C 24.003906 0.710938 22.414062 0.78125 21.375 0.78125 Z M 21.375 0.78125 "/></g></g></g><g fill="#000000" fill-opacity="1"><g transform="translate(139.184135, 188.220019)"><g><path d="M 53.640625 0.78125 C 50.796875 0.78125 47.203125 0.78125 42.859375 0.78125 C 38.515625 0.78125 34.039062 0.78125 29.4375 0.78125 C 24.84375 0.78125 20.664062 0.742188 16.90625 0.671875 C 13.144531 0.609375 10.425781 0.515625 8.75 0.390625 C 7.445312 0.253906 6.273438 -0.265625 5.234375 -1.171875 C 4.203125 -2.078125 3.6875 -3.175781 3.6875 -4.46875 C 3.6875 -5.632812 3.6875 -6.734375 3.6875 -7.765625 C 3.6875 -8.804688 3.753906 -9.910156 3.890625 -11.078125 C 4.148438 -13.671875 4.925781 -16.003906 6.21875 -18.078125 C 7.507812 -20.148438 9.773438 -22.222656 13.015625 -24.296875 C 19.492188 -32.585938 25.972656 -40.878906 32.453125 -49.171875 C 38.929688 -57.460938 45.410156 -65.753906 51.890625 -74.046875 C 56.679688 -77.421875 58.265625 -80.078125 56.640625 -82.015625 C 55.023438 -83.960938 51.046875 -84.9375 44.703125 -84.9375 C 32.128906 -84.9375 23.316406 -81.4375 18.265625 -74.4375 C 16.710938 -72.363281 14.769531 -71.488281 12.4375 -71.8125 C 10.101562 -72.132812 9.003906 -73.785156 9.140625 -76.765625 C 9.265625 -80.140625 9.488281 -84.03125 9.8125 -88.4375 C 10.132812 -92.84375 10.425781 -96.796875 10.6875 -100.296875 C 10.945312 -101.847656 11.5625 -103.140625 12.53125 -104.171875 C 13.507812 -105.210938 14.644531 -105.734375 15.9375 -105.734375 C 21.375 -105.992188 27.847656 -106.1875 35.359375 -106.3125 C 42.878906 -106.445312 49.945312 -106.515625 56.5625 -106.515625 C 59.539062 -106.515625 63.101562 -106.476562 67.25 -106.40625 C 71.394531 -106.34375 75.570312 -106.28125 79.78125 -106.21875 C 83.988281 -106.15625 87.742188 -106.054688 91.046875 -105.921875 C 94.359375 -105.796875 96.726562 -105.734375 98.15625 -105.734375 C 99.582031 -105.734375 100.75 -105.3125 101.65625 -104.46875 C 102.5625 -103.625 103.078125 -102.617188 103.203125 -101.453125 C 103.460938 -100.160156 103.59375 -98.894531 103.59375 -97.65625 C 103.59375 -96.425781 103.65625 -95.226562 103.78125 -94.0625 C 103.78125 -91.738281 103.195312 -89.472656 102.03125 -87.265625 C 100.875 -85.066406 98.929688 -82.992188 96.203125 -81.046875 L 56.75 -31.09375 C 52.863281 -27.988281 51.4375 -25.363281 52.46875 -23.21875 C 53.507812 -21.082031 57.789062 -20.015625 65.3125 -20.015625 C 72.945312 -20.015625 79.453125 -21.082031 84.828125 -23.21875 C 90.210938 -25.363281 94.585938 -29.414062 97.953125 -35.375 C 99.378906 -37.832031 101.160156 -39.09375 103.296875 -39.15625 C 105.441406 -39.226562 106.640625 -37.578125 106.890625 -34.203125 C 107.285156 -31.609375 107.613281 -28.5 107.875 -24.875 C 108.132812 -21.25 108.390625 -17.617188 108.640625 -13.984375 C 108.898438 -10.359375 109.097656 -7.1875 109.234375 -4.46875 C 109.359375 -3.300781 108.9375 -2.234375 107.96875 -1.265625 C 107 -0.296875 105.800781 0.253906 104.375 0.390625 C 100.351562 0.390625 95.265625 0.421875 89.109375 0.484375 C 82.953125 0.546875 76.664062 0.609375 70.25 0.671875 C 63.84375 0.742188 58.304688 0.78125 53.640625 0.78125 Z M 53.640625 0.78125 "/></g></g></g><g fill="#000000" fill-opacity="1"><g transform="translate(252.101992, 188.220019)"><g><path d="M 21.578125 0.78125 C 20.148438 0.78125 18.238281 0.710938 15.84375 0.578125 C 13.445312 0.453125 11.46875 0.257812 9.90625 0 C 6.925781 -0.644531 5.4375 -2.457031 5.4375 -5.4375 C 5.4375 -16.707031 5.5 -28.398438 5.625 -40.515625 C 5.757812 -52.640625 5.921875 -64.53125 6.109375 -76.1875 C 6.304688 -87.851562 6.632812 -98.769531 7.09375 -108.9375 C 7.550781 -119.113281 8.035156 -127.828125 8.546875 -135.078125 C 8.941406 -137.929688 10.5625 -139.550781 13.40625 -139.9375 C 14.832031 -140.195312 16.453125 -140.390625 18.265625 -140.515625 C 20.078125 -140.648438 21.765625 -140.71875 23.328125 -140.71875 C 25.140625 -140.71875 27.273438 -140.648438 29.734375 -140.515625 C 32.203125 -140.390625 34.082031 -140.195312 35.375 -139.9375 C 36.800781 -139.8125 37.929688 -139.195312 38.765625 -138.09375 C 39.609375 -136.988281 39.90625 -135.722656 39.65625 -134.296875 C 39.132812 -130.023438 38.453125 -124.519531 37.609375 -117.78125 C 36.765625 -111.039062 36.019531 -104.070312 35.375 -96.875 C 34.726562 -89.6875 34.40625 -83.242188 34.40625 -77.546875 C 34.40625 -74.304688 35.242188 -71.648438 36.921875 -69.578125 C 38.609375 -67.503906 40.617188 -66.46875 42.953125 -66.46875 C 48.910156 -66.46875 54.445312 -68.117188 59.5625 -71.421875 C 64.6875 -74.734375 68.929688 -79.007812 72.296875 -84.25 C 75.671875 -89.5 77.550781 -95.039062 77.9375 -100.875 C 77.9375 -103.46875 79.425781 -105.085938 82.40625 -105.734375 C 84.21875 -105.992188 86.191406 -106.1875 88.328125 -106.3125 C 90.472656 -106.445312 92.320312 -106.515625 93.875 -106.515625 C 95.300781 -106.515625 96.820312 -106.476562 98.4375 -106.40625 C 100.0625 -106.34375 101.78125 -106.117188 103.59375 -105.734375 C 106.832031 -105.085938 108.390625 -103.46875 108.265625 -100.875 C 108.128906 -93.226562 106.894531 -86.488281 104.5625 -80.65625 C 102.226562 -74.820312 98.144531 -70.023438 92.3125 -66.265625 C 86.488281 -62.515625 78.265625 -59.796875 67.640625 -58.109375 C 65.953125 -57.847656 65.109375 -57.265625 65.109375 -56.359375 C 65.109375 -55.453125 65.953125 -54.867188 67.640625 -54.609375 C 79.296875 -53.191406 88.363281 -50.441406 94.84375 -46.359375 C 101.320312 -42.273438 106.019531 -36.796875 108.9375 -29.921875 C 111.851562 -23.054688 113.703125 -14.640625 114.484375 -4.671875 C 114.609375 -2.078125 112.988281 -0.457031 109.625 0.1875 C 107.675781 0.445312 105.828125 0.609375 104.078125 0.671875 C 102.328125 0.742188 100.867188 0.78125 99.703125 0.78125 C 98.273438 0.78125 96.234375 0.742188 93.578125 0.671875 C 90.921875 0.609375 88.492188 0.445312 86.296875 0.1875 C 83.316406 -0.457031 81.695312 -2.007812 81.4375 -4.46875 C 81.175781 -10.6875 79.78125 -16.289062 77.25 -21.28125 C 74.726562 -26.269531 71.554688 -30.546875 67.734375 -34.109375 C 63.910156 -37.671875 59.765625 -40.421875 55.296875 -42.359375 C 50.828125 -44.304688 46.453125 -45.28125 42.171875 -45.28125 C 40.097656 -45.28125 38.316406 -44.4375 36.828125 -42.75 C 35.335938 -41.070312 34.53125 -38.9375 34.40625 -36.34375 C 34.269531 -31.164062 34.363281 -26.113281 34.6875 -21.1875 C 35.007812 -16.257812 35.5625 -11.007812 36.34375 -5.4375 C 36.601562 -3.882812 36.28125 -2.617188 35.375 -1.640625 C 34.46875 -0.671875 33.300781 -0.0625 31.875 0.1875 C 30.445312 0.320312 28.726562 0.453125 26.71875 0.578125 C 24.71875 0.710938 23.003906 0.78125 21.578125 0.78125 Z M 21.578125 0.78125 "/></g></g></g><g fill="#000000" fill-opacity="1"><g transform="translate(365.408312, 188.220019)"><g><path d="M 55 46.25 C 50.207031 46.25 44.992188 46.085938 39.359375 45.765625 C 33.722656 45.441406 28.179688 44.921875 22.734375 44.203125 C 17.296875 43.492188 12.503906 42.492188 8.359375 41.203125 C 5.242188 40.171875 3.816406 37.96875 4.078125 34.59375 C 4.472656 31.226562 4.796875 27.664062 5.046875 23.90625 C 5.304688 20.144531 5.632812 16.644531 6.03125 13.40625 C 6.28125 11.207031 7.210938 9.816406 8.828125 9.234375 C 10.453125 8.648438 11.976562 9.132812 13.40625 10.6875 C 17.945312 13.664062 23.390625 16.03125 29.734375 17.78125 C 36.085938 19.53125 42.304688 20.40625 48.390625 20.40625 C 55.390625 20.40625 61.738281 18.785156 67.4375 15.546875 C 73.144531 12.304688 77.679688 8.160156 81.046875 3.109375 C 84.410156 -1.941406 86.09375 -7.125 86.09375 -12.4375 L 86.09375 -14.96875 C 86.09375 -17.164062 85.507812 -18.328125 84.34375 -18.453125 C 83.1875 -18.585938 82.21875 -17.75 81.4375 -15.9375 C 78.070312 -9.195312 73.566406 -4.59375 67.921875 -2.125 C 62.285156 0.332031 55.84375 1.5625 48.59375 1.5625 C 38.738281 1.5625 30.671875 -0.703125 24.390625 -5.234375 C 18.109375 -9.773438 13.441406 -16.0625 10.390625 -24.09375 C 7.347656 -32.132812 5.828125 -41.46875 5.828125 -52.09375 C 5.828125 -57.144531 5.921875 -62.035156 6.109375 -66.765625 C 6.304688 -71.492188 6.632812 -76.546875 7.09375 -81.921875 C 7.550781 -87.296875 8.035156 -93.421875 8.546875 -100.296875 C 8.941406 -103.398438 10.5 -105.273438 13.21875 -105.921875 C 14.769531 -106.179688 16.515625 -106.375 18.453125 -106.5 C 20.398438 -106.632812 21.894531 -106.703125 22.9375 -106.703125 C 24.101562 -106.703125 25.976562 -106.632812 28.5625 -106.5 C 31.15625 -106.375 33.359375 -106.179688 35.171875 -105.921875 C 36.472656 -105.660156 37.578125 -105.078125 38.484375 -104.171875 C 39.390625 -103.265625 39.710938 -102.035156 39.453125 -100.484375 C 38.804688 -95.953125 38.125 -91.125 37.40625 -86 C 36.695312 -80.882812 36.113281 -75.925781 35.65625 -71.125 C 35.207031 -66.332031 34.984375 -62.0625 34.984375 -58.3125 C 34.984375 -47.8125 36.957031 -39.320312 40.90625 -32.84375 C 44.863281 -26.363281 51.3125 -23.125 60.25 -23.125 C 67.375 -23.125 72.910156 -26.554688 76.859375 -33.421875 C 80.816406 -40.296875 82.796875 -49.046875 82.796875 -59.671875 C 82.796875 -65.367188 82.503906 -71.78125 81.921875 -78.90625 C 81.335938 -86.03125 80.398438 -93.160156 79.109375 -100.296875 C 78.847656 -101.847656 79.171875 -103.109375 80.078125 -104.078125 C 80.984375 -105.046875 82.019531 -105.660156 83.1875 -105.921875 C 84.613281 -106.179688 86.523438 -106.375 88.921875 -106.5 C 91.316406 -106.632812 93.359375 -106.703125 95.046875 -106.703125 C 96.859375 -106.703125 98.765625 -106.632812 100.765625 -106.5 C 102.773438 -106.375 104.5625 -106.179688 106.125 -105.921875 C 108.96875 -105.535156 110.519531 -103.660156 110.78125 -100.296875 C 111.5625 -90.179688 112.175781 -81.171875 112.625 -73.265625 C 113.082031 -65.367188 113.441406 -57.921875 113.703125 -50.921875 C 113.960938 -43.921875 114.09375 -36.859375 114.09375 -29.734375 C 114.09375 -22.609375 114.09375 -14.832031 114.09375 -6.40625 C 114.09375 3.050781 112.4375 11.113281 109.125 17.78125 C 105.820312 24.457031 101.351562 29.898438 95.71875 34.109375 C 90.082031 38.316406 83.734375 41.390625 76.671875 43.328125 C 69.609375 45.273438 62.382812 46.25 55 46.25 Z M 55 46.25 "/></g></g></g><g fill="#000000" fill-opacity="1"><g transform="translate(484.156725, 188.220019)"><g/></g></g><g fill="#000000" fill-opacity="1"><g transform="translate(536.437112, 188.220019)"><g><path d="M 35.953125 0.78125 C 34.140625 0.78125 31.96875 0.710938 29.4375 0.578125 C 26.914062 0.453125 24.8125 0.257812 23.125 0 C 21.832031 -0.257812 20.765625 -0.875 19.921875 -1.84375 C 19.078125 -2.8125 18.65625 -4.078125 18.65625 -5.640625 C 18.65625 -20.273438 18.785156 -33.878906 19.046875 -46.453125 C 19.304688 -59.023438 19.628906 -71.269531 20.015625 -83.1875 C 20.015625 -86.039062 18.785156 -87.46875 16.328125 -87.46875 L 8.15625 -87.46875 C 6.738281 -87.46875 5.507812 -87.984375 4.46875 -89.015625 C 3.4375 -90.054688 2.921875 -91.285156 2.921875 -92.703125 L 2.921875 -100.484375 C 2.921875 -101.910156 3.4375 -103.140625 4.46875 -104.171875 C 5.507812 -105.210938 6.738281 -105.734375 8.15625 -105.734375 L 17.875 -105.734375 C 18.78125 -105.734375 19.65625 -105.988281 20.5 -106.5 C 21.34375 -107.019531 21.632812 -107.800781 21.375 -108.84375 C 20.082031 -116.875 20.957031 -123.382812 24 -128.375 C 27.050781 -133.363281 31.457031 -137.054688 37.21875 -139.453125 C 42.988281 -141.847656 49.304688 -143.046875 56.171875 -143.046875 C 59.273438 -143.046875 62.769531 -142.65625 66.65625 -141.875 C 70.550781 -141.101562 74.050781 -140.003906 77.15625 -138.578125 C 79.226562 -137.796875 80.265625 -136.046875 80.265625 -133.328125 C 80.398438 -131.128906 80.46875 -128.664062 80.46875 -125.9375 C 80.46875 -123.21875 80.46875 -120.757812 80.46875 -118.5625 C 80.46875 -115.84375 79.59375 -114.15625 77.84375 -113.5 C 76.09375 -112.851562 74.375 -113.375 72.6875 -115.0625 C 71.257812 -116.613281 69.28125 -117.875 66.75 -118.84375 C 64.226562 -119.820312 61.929688 -120.3125 59.859375 -120.3125 C 56.617188 -120.3125 53.992188 -119.4375 51.984375 -117.6875 C 49.984375 -115.9375 49.046875 -113.765625 49.171875 -111.171875 C 49.304688 -109.234375 50.570312 -107.742188 52.96875 -106.703125 C 55.363281 -105.660156 58.050781 -105.140625 61.03125 -105.140625 C 63.625 -105.140625 66.082031 -105.238281 68.40625 -105.4375 C 70.738281 -105.632812 73.140625 -105.863281 75.609375 -106.125 C 77.160156 -106.382812 78.488281 -105.992188 79.59375 -104.953125 C 80.695312 -103.921875 81.25 -102.625 81.25 -101.0625 C 81.5 -97.957031 81.5 -94.71875 81.25 -91.34375 C 81.25 -89.914062 80.726562 -88.679688 79.6875 -87.640625 C 78.644531 -86.609375 77.414062 -86.160156 76 -86.296875 C 73.019531 -86.554688 69.226562 -86.878906 64.625 -87.265625 C 60.019531 -87.648438 56.097656 -87.84375 52.859375 -87.84375 C 51.691406 -87.84375 50.753906 -87.421875 50.046875 -86.578125 C 49.335938 -85.742188 48.984375 -84.675781 48.984375 -83.375 C 48.585938 -67.3125 48.875 -52.507812 49.84375 -38.96875 C 50.820312 -25.425781 51.632812 -14.25 52.28125 -5.4375 C 52.539062 -3.882812 52.179688 -2.65625 51.203125 -1.75 C 50.234375 -0.84375 49.164062 -0.257812 48 0 C 46.320312 0.257812 44.347656 0.453125 42.078125 0.578125 C 39.804688 0.710938 37.765625 0.78125 35.953125 0.78125 Z M 35.953125 0.78125 "/></g></g></g><g fill="#000000" fill-opacity="1"><g transform="translate(613.01097, 188.220019)"><g><path d="M 36.34375 1.5625 C 26.5 1.5625 18.5625 -0.769531 12.53125 -5.4375 C 6.507812 -10.101562 3.5 -17.941406 3.5 -28.953125 C 3.5 -38.671875 6.960938 -46.347656 13.890625 -51.984375 C 20.828125 -57.628906 30.382812 -61.488281 42.5625 -63.5625 C 53.707031 -65.113281 61.546875 -66.695312 66.078125 -68.3125 C 70.617188 -69.9375 72.890625 -72.5 72.890625 -76 C 72.890625 -78.070312 71.460938 -80.015625 68.609375 -81.828125 C 65.753906 -83.640625 60.894531 -84.546875 54.03125 -84.546875 C 48.195312 -84.546875 42.171875 -83.640625 35.953125 -81.828125 C 29.734375 -80.015625 24.289062 -77.035156 19.625 -72.890625 C 18.207031 -70.816406 16.554688 -70.234375 14.671875 -71.140625 C 12.796875 -72.046875 11.921875 -73.921875 12.046875 -76.765625 C 12.179688 -78.191406 12.375 -80.164062 12.625 -82.6875 C 12.882812 -85.21875 13.175781 -87.78125 13.5 -90.375 C 13.832031 -92.96875 14.0625 -94.910156 14.1875 -96.203125 C 14.570312 -99.316406 15.867188 -101.328125 18.078125 -102.234375 C 28.828125 -105.597656 40.488281 -107.28125 53.0625 -107.28125 C 67.957031 -107.28125 79.519531 -104.070312 87.75 -97.65625 C 95.976562 -91.25 100.738281 -80.984375 102.03125 -66.859375 C 102.425781 -61.929688 102.816406 -55.835938 103.203125 -48.578125 C 103.585938 -41.328125 103.972656 -33.941406 104.359375 -26.421875 C 104.753906 -18.910156 105.082031 -12.175781 105.34375 -6.21875 C 105.34375 -2.851562 103.53125 -0.84375 99.90625 -0.1875 C 98.601562 0.195312 96.976562 0.453125 95.03125 0.578125 C 93.09375 0.710938 91.21875 0.78125 89.40625 0.78125 C 87.851562 0.78125 85.875 0.710938 83.46875 0.578125 C 81.070312 0.453125 79.097656 0.195312 77.546875 -0.1875 C 75.859375 -0.445312 74.492188 -1.191406 73.453125 -2.421875 C 72.421875 -3.660156 72.035156 -5.117188 72.296875 -6.796875 C 72.554688 -8.097656 72.847656 -9.785156 73.171875 -11.859375 C 73.492188 -13.929688 73.722656 -16.003906 73.859375 -18.078125 C 74.117188 -19.890625 73.695312 -20.957031 72.59375 -21.28125 C 71.488281 -21.601562 70.550781 -20.921875 69.78125 -19.234375 C 66.800781 -12.890625 62.195312 -7.835938 55.96875 -4.078125 C 49.75 -0.316406 43.207031 1.5625 36.34375 1.5625 Z M 49.5625 -22.546875 C 52.800781 -22.546875 56.203125 -23.382812 59.765625 -25.0625 C 63.328125 -26.75 66.335938 -29.179688 68.796875 -32.359375 C 71.265625 -35.535156 72.5 -39.390625 72.5 -43.921875 C 72.5 -47.035156 71.554688 -49.59375 69.671875 -51.59375 C 67.796875 -53.601562 64.59375 -54.609375 60.0625 -54.609375 C 55.519531 -54.609375 51.175781 -53.765625 47.03125 -52.078125 C 42.882812 -50.398438 39.515625 -48.101562 36.921875 -45.1875 C 34.335938 -42.269531 33.046875 -38.804688 33.046875 -34.796875 C 33.046875 -30.390625 34.335938 -27.242188 36.921875 -25.359375 C 39.515625 -23.484375 43.726562 -22.546875 49.5625 -22.546875 Z M 49.5625 -22.546875 "/></g></g></g><g fill="#000000" fill-opacity="1"><g transform="translate(720.681295, 188.220019)"><g><path d="M 47.8125 1.5625 C 33.039062 1.5625 22.21875 -3.101562 15.34375 -12.4375 C 8.476562 -21.769531 5.046875 -34.40625 5.046875 -50.34375 C 5.046875 -57.726562 5.269531 -65.304688 5.71875 -73.078125 C 6.175781 -80.847656 6.863281 -89.921875 7.78125 -100.296875 C 7.90625 -103.398438 9.457031 -105.273438 12.4375 -105.921875 C 13.988281 -106.179688 15.738281 -106.375 17.6875 -106.5 C 19.632812 -106.632812 21.0625 -106.703125 21.96875 -106.703125 C 23.257812 -106.703125 25.164062 -106.632812 27.6875 -106.5 C 30.21875 -106.375 32.390625 -106.179688 34.203125 -105.921875 C 35.503906 -105.660156 36.609375 -105.078125 37.515625 -104.171875 C 38.421875 -103.265625 38.742188 -102.035156 38.484375 -100.484375 C 37.835938 -95.953125 37.15625 -90.992188 36.4375 -85.609375 C 35.726562 -80.234375 35.144531 -74.953125 34.6875 -69.765625 C 34.238281 -64.585938 34.015625 -60.117188 34.015625 -56.359375 C 34.015625 -45.992188 36.019531 -37.863281 40.03125 -31.96875 C 44.050781 -26.070312 50.53125 -23.125 59.46875 -23.125 C 66.46875 -23.125 72.101562 -26.265625 76.375 -32.546875 C 80.65625 -38.835938 82.796875 -47.226562 82.796875 -57.71875 C 82.796875 -63.425781 82.503906 -70.164062 81.921875 -77.9375 C 81.335938 -85.707031 80.398438 -93.160156 79.109375 -100.296875 C 78.847656 -101.847656 79.171875 -103.109375 80.078125 -104.078125 C 80.984375 -105.046875 82.019531 -105.660156 83.1875 -105.921875 C 84.613281 -106.179688 86.492188 -106.375 88.828125 -106.5 C 91.160156 -106.632812 93.101562 -106.703125 94.65625 -106.703125 C 96.46875 -106.703125 98.34375 -106.632812 100.28125 -106.5 C 102.226562 -106.375 104.046875 -106.179688 105.734375 -105.921875 C 108.453125 -105.535156 110.003906 -103.660156 110.390625 -100.296875 C 111.171875 -89.015625 111.753906 -79.128906 112.140625 -70.640625 C 112.535156 -62.160156 112.828125 -54.390625 113.015625 -47.328125 C 113.210938 -40.265625 113.273438 -33.394531 113.203125 -26.71875 C 113.140625 -20.050781 113.109375 -12.828125 113.109375 -5.046875 C 113.109375 -2.203125 111.816406 -0.457031 109.234375 0.1875 C 107.929688 0.445312 106.40625 0.640625 104.65625 0.765625 C 102.90625 0.898438 101.191406 0.96875 99.515625 0.96875 C 97.828125 0.96875 96.007812 0.867188 94.0625 0.671875 C 92.125 0.484375 90.25 0.320312 88.4375 0.1875 C 87.132812 -0.0625 86.0625 -0.671875 85.21875 -1.640625 C 84.382812 -2.617188 84.097656 -3.820312 84.359375 -5.25 C 84.609375 -7.0625 84.765625 -8.804688 84.828125 -10.484375 C 84.898438 -12.171875 84.9375 -13.664062 84.9375 -14.96875 C 84.9375 -17.164062 84.515625 -18.328125 83.671875 -18.453125 C 82.828125 -18.585938 81.890625 -17.75 80.859375 -15.9375 C 76.710938 -9.84375 71.945312 -5.398438 66.5625 -2.609375 C 61.1875 0.171875 54.9375 1.5625 47.8125 1.5625 Z M 47.8125 1.5625 "/></g></g></g><g fill="#000000" fill-opacity="1"><g transform="translate(838.652305, 188.220019)"><g><path d="M 53.640625 0.78125 C 50.796875 0.78125 47.203125 0.78125 42.859375 0.78125 C 38.515625 0.78125 34.039062 0.78125 29.4375 0.78125 C 24.84375 0.78125 20.664062 0.742188 16.90625 0.671875 C 13.144531 0.609375 10.425781 0.515625 8.75 0.390625 C 7.445312 0.253906 6.273438 -0.265625 5.234375 -1.171875 C 4.203125 -2.078125 3.6875 -3.175781 3.6875 -4.46875 C 3.6875 -5.632812 3.6875 -6.734375 3.6875 -7.765625 C 3.6875 -8.804688 3.753906 -9.910156 3.890625 -11.078125 C 4.148438 -13.671875 4.925781 -16.003906 6.21875 -18.078125 C 7.507812 -20.148438 9.773438 -22.222656 13.015625 -24.296875 C 19.492188 -32.585938 25.972656 -40.878906 32.453125 -49.171875 C 38.929688 -57.460938 45.410156 -65.753906 51.890625 -74.046875 C 56.679688 -77.421875 58.265625 -80.078125 56.640625 -82.015625 C 55.023438 -83.960938 51.046875 -84.9375 44.703125 -84.9375 C 32.128906 -84.9375 23.316406 -81.4375 18.265625 -74.4375 C 16.710938 -72.363281 14.769531 -71.488281 12.4375 -71.8125 C 10.101562 -72.132812 9.003906 -73.785156 9.140625 -76.765625 C 9.265625 -80.140625 9.488281 -84.03125 9.8125 -88.4375 C 10.132812 -92.84375 10.425781 -96.796875 10.6875 -100.296875 C 10.945312 -101.847656 11.5625 -103.140625 12.53125 -104.171875 C 13.507812 -105.210938 14.644531 -105.734375 15.9375 -105.734375 C 21.375 -105.992188 27.847656 -106.1875 35.359375 -106.3125 C 42.878906 -106.445312 49.945312 -106.515625 56.5625 -106.515625 C 59.539062 -106.515625 63.101562 -106.476562 67.25 -106.40625 C 71.394531 -106.34375 75.570312 -106.28125 79.78125 -106.21875 C 83.988281 -106.15625 87.742188 -106.054688 91.046875 -105.921875 C 94.359375 -105.796875 96.726562 -105.734375 98.15625 -105.734375 C 99.582031 -105.734375 100.75 -105.3125 101.65625 -104.46875 C 102.5625 -103.625 103.078125 -102.617188 103.203125 -101.453125 C 103.460938 -100.160156 103.59375 -98.894531 103.59375 -97.65625 C 103.59375 -96.425781 103.65625 -95.226562 103.78125 -94.0625 C 103.78125 -91.738281 103.195312 -89.472656 102.03125 -87.265625 C 100.875 -85.066406 98.929688 -82.992188 96.203125 -81.046875 L 56.75 -31.09375 C 52.863281 -27.988281 51.4375 -25.363281 52.46875 -23.21875 C 53.507812 -21.082031 57.789062 -20.015625 65.3125 -20.015625 C 72.945312 -20.015625 79.453125 -21.082031 84.828125 -23.21875 C 90.210938 -25.363281 94.585938 -29.414062 97.953125 -35.375 C 99.378906 -37.832031 101.160156 -39.09375 103.296875 -39.15625 C 105.441406 -39.226562 106.640625 -37.578125 106.890625 -34.203125 C 107.285156 -31.609375 107.613281 -28.5 107.875 -24.875 C 108.132812 -21.25 108.390625 -17.617188 108.640625 -13.984375 C 108.898438 -10.359375 109.097656 -7.1875 109.234375 -4.46875 C 109.359375 -3.300781 108.9375 -2.234375 107.96875 -1.265625 C 107 -0.296875 105.800781 0.253906 104.375 0.390625 C 100.351562 0.390625 95.265625 0.421875 89.109375 0.484375 C 82.953125 0.546875 76.664062 0.609375 70.25 0.671875 C 63.84375 0.742188 58.304688 0.78125 53.640625 0.78125 Z M 53.640625 0.78125 "/></g></g></g><g fill="#000000" fill-opacity="1"><g transform="translate(951.570148, 188.220019)"><g><path d="M 20.984375 -115.84375 C 16.191406 -115.84375 12.273438 -117.132812 9.234375 -119.71875 C 6.191406 -122.3125 4.671875 -125.617188 4.671875 -129.640625 C 4.671875 -133.785156 6.191406 -137.148438 9.234375 -139.734375 C 12.273438 -142.328125 16.191406 -143.625 20.984375 -143.625 C 25.910156 -143.625 29.894531 -142.328125 32.9375 -139.734375 C 35.988281 -137.148438 37.515625 -133.785156 37.515625 -129.640625 C 37.515625 -125.617188 35.988281 -122.3125 32.9375 -119.71875 C 29.894531 -117.132812 25.910156 -115.84375 20.984375 -115.84375 Z M 21.375 0.78125 C 20.34375 0.78125 18.660156 0.742188 16.328125 0.671875 C 13.992188 0.609375 11.984375 0.382812 10.296875 0 C 9.128906 -0.257812 8.125 -0.875 7.28125 -1.84375 C 6.445312 -2.8125 6.03125 -4.078125 6.03125 -5.640625 C 6.03125 -16.910156 6.0625 -26.851562 6.125 -35.46875 C 6.1875 -44.082031 6.28125 -51.984375 6.40625 -59.171875 C 6.539062 -66.367188 6.738281 -73.300781 7 -79.96875 C 7.257812 -86.644531 7.644531 -93.613281 8.15625 -100.875 C 8.289062 -102.5625 8.679688 -103.757812 9.328125 -104.46875 C 9.972656 -105.175781 10.945312 -105.597656 12.25 -105.734375 C 13.664062 -105.992188 15.3125 -106.1875 17.1875 -106.3125 C 19.070312 -106.445312 20.535156 -106.515625 21.578125 -106.515625 C 22.484375 -106.515625 23.773438 -106.445312 25.453125 -106.3125 C 27.140625 -106.1875 28.632812 -105.992188 29.9375 -105.734375 C 31.226562 -105.472656 32.195312 -105.019531 32.84375 -104.375 C 33.488281 -103.726562 33.878906 -102.5625 34.015625 -100.875 C 34.535156 -93.613281 34.921875 -86.644531 35.171875 -79.96875 C 35.429688 -73.300781 35.625 -66.367188 35.75 -59.171875 C 35.882812 -51.984375 35.984375 -44.046875 36.046875 -35.359375 C 36.117188 -26.679688 36.15625 -16.707031 36.15625 -5.4375 C 36.15625 -3.882812 35.734375 -2.65625 34.890625 -1.75 C 34.046875 -0.84375 33.039062 -0.257812 31.875 0 C 30.1875 0.257812 28.273438 0.453125 26.140625 0.578125 C 24.003906 0.710938 22.414062 0.78125 21.375 0.78125 Z M 21.375 0.78125 "/></g></g></g></g></g></svg>