<svg xmlns="http://www.w3.org/2000/svg" xmlns:xlink="http://www.w3.org/1999/xlink" width="2000" zoomAndPan="magnify" viewBox="0 0 1500 374.999991" height="500" preserveAspectRatio="xMidYMid meet" version="1.0"><defs><g/><clipPath id="9eba23f4c9"><path d="M 37.5 56.796875 L 375 56.796875 L 375 318.546875 L 37.5 318.546875 Z M 37.5 56.796875 " clip-rule="nonzero"/></clipPath></defs><g clip-path="url(#9eba23f4c9)"><path fill="#0f0f10" d="M 268.996094 238.957031 L 314.988281 318.222656 L 238.835938 318.222656 L 192.84375 238.957031 Z M 136.609375 147.871094 L 37.765625 318.222656 L 113.917969 318.222656 L 174.539062 213.742188 L 283.671875 213.742188 L 321.890625 147.878906 L 136.609375 147.878906 Z M 87.148438 56.796875 L 125.367188 122.660156 L 336.527344 122.660156 L 374.742188 56.796875 Z M 87.148438 56.796875 " fill-opacity="1" fill-rule="nonzero"/></g><g fill="#000000" fill-opacity="1"><g transform="translate(386.876126, 261.749983)"><g><path d="M 80.46875 -46.03125 C 81.207031 -48.457031 82.476562 -50.171875 84.28125 -51.171875 C 86.082031 -52.179688 87.988281 -52.6875 90 -52.6875 C 92.53125 -52.6875 94.878906 -51.972656 97.046875 -50.546875 C 99.222656 -49.117188 100.3125 -47.191406 100.3125 -44.765625 C 100.3125 -44.015625 100.148438 -43.164062 99.828125 -42.21875 C 95.171875 -28.78125 89.113281 -18.382812 81.65625 -11.03125 C 74.195312 -3.675781 66.128906 0 57.453125 0 C 53.117188 0 49.097656 -0.953125 45.390625 -2.859375 C 41.691406 -4.765625 38.753906 -7.4375 36.578125 -10.875 C 34.410156 -14.3125 33.328125 -18.304688 33.328125 -22.859375 C 33.328125 -26.023438 33.960938 -29.410156 35.234375 -33.015625 L 42.21875 -52.375 C 42.539062 -53.539062 42.703125 -54.492188 42.703125 -55.234375 C 42.703125 -57.035156 42.144531 -58.410156 41.03125 -59.359375 C 39.914062 -60.316406 38.5625 -61.082031 36.96875 -61.65625 C 35.382812 -62.238281 33.851562 -62.742188 32.375 -63.171875 L 23.484375 -39.359375 C 22.535156 -36.816406 21.03125 -34.910156 18.96875 -33.640625 C 16.90625 -32.378906 14.757812 -31.75 12.53125 -31.75 C 10.3125 -31.75 8.328125 -32.410156 6.578125 -33.734375 C 4.835938 -35.054688 3.96875 -37.039062 3.96875 -39.6875 C 3.96875 -40.738281 4.125 -41.898438 4.4375 -43.171875 L 16.03125 -74.4375 C 13.382812 -77.71875 12.0625 -81.472656 12.0625 -85.703125 C 12.0625 -90.253906 13.382812 -94.273438 16.03125 -97.765625 C 18.675781 -101.265625 22.328125 -103.015625 26.984375 -103.015625 C 30.578125 -103.015625 33.75 -101.691406 36.5 -99.046875 C 39.25 -96.398438 40.625 -93.222656 40.625 -89.515625 C 40.625 -88.035156 40.414062 -86.710938 40 -85.546875 C 42.21875 -84.910156 44.882812 -83.984375 48 -82.765625 C 51.125 -81.554688 54.222656 -80 57.296875 -78.09375 C 60.367188 -76.1875 62.910156 -73.882812 64.921875 -71.1875 C 66.929688 -68.488281 67.9375 -65.234375 67.9375 -61.421875 C 67.9375 -60.046875 67.800781 -58.644531 67.53125 -57.21875 C 67.269531 -55.789062 66.875 -54.28125 66.34375 -52.6875 L 56.984375 -26.671875 C 56.554688 -25.503906 56.34375 -24.335938 56.34375 -23.171875 C 56.34375 -22.109375 56.632812 -21.128906 57.21875 -20.234375 C 57.800781 -19.335938 58.617188 -18.890625 59.671875 -18.890625 C 63.054688 -18.890625 66.628906 -21.476562 70.390625 -26.65625 C 74.148438 -31.84375 77.507812 -38.300781 80.46875 -46.03125 Z M 80.46875 -46.03125 "/></g></g></g><g fill="#000000" fill-opacity="1"><g transform="translate(462.103263, 261.749983)"><g><path d="M 42.703125 -107.765625 C 39.097656 -107.765625 36.023438 -109.0625 33.484375 -111.65625 C 30.953125 -114.25 29.6875 -117.34375 29.6875 -120.9375 C 29.6875 -124.539062 30.953125 -127.582031 33.484375 -130.0625 C 36.023438 -132.550781 39.097656 -133.796875 42.703125 -133.796875 C 46.296875 -133.796875 49.359375 -132.550781 51.890625 -130.0625 C 54.429688 -127.582031 55.703125 -124.539062 55.703125 -120.9375 C 55.703125 -117.34375 54.429688 -114.25 51.890625 -111.65625 C 49.359375 -109.0625 46.296875 -107.765625 42.703125 -107.765625 Z M 21.265625 -26.828125 C 20.953125 -25.867188 20.796875 -25.019531 20.796875 -24.28125 C 20.796875 -22.800781 21.347656 -21.53125 22.453125 -20.46875 C 23.566406 -19.414062 25.023438 -18.890625 26.828125 -18.890625 C 29.992188 -18.890625 33.5625 -20.84375 37.53125 -24.75 C 41.5 -28.664062 45.335938 -35.757812 49.046875 -46.03125 C 49.992188 -48.457031 51.445312 -50.253906 53.40625 -51.421875 C 55.363281 -52.585938 57.398438 -53.171875 59.515625 -53.171875 C 61.953125 -53.171875 64.148438 -52.457031 66.109375 -51.03125 C 68.066406 -49.601562 69.046875 -47.671875 69.046875 -45.234375 C 69.046875 -44.285156 68.882812 -43.332031 68.5625 -42.375 C 64.863281 -31.476562 60.601562 -22.929688 55.78125 -16.734375 C 50.96875 -10.546875 45.890625 -6.207031 40.546875 -3.71875 C 35.203125 -1.238281 29.941406 0 24.765625 0 C 19.890625 0 15.414062 -0.925781 11.34375 -2.78125 C 7.269531 -4.632812 3.988281 -7.304688 1.5 -10.796875 C -0.976562 -14.285156 -2.21875 -18.515625 -2.21875 -23.484375 C -2.21875 -24.859375 -1.953125 -26.5 -1.421875 -28.40625 C -0.898438 -30.3125 -0.425781 -32.054688 0 -33.640625 C 1.695312 -38.617188 3.519531 -43.910156 5.46875 -49.515625 C 7.425781 -55.128906 9.382812 -60.738281 11.34375 -66.34375 C 13.300781 -71.945312 15.128906 -77.238281 16.828125 -82.21875 C 18.097656 -85.914062 19.921875 -88.664062 22.296875 -90.46875 C 24.679688 -92.269531 27.085938 -93.171875 29.515625 -93.171875 C 32.265625 -93.171875 34.722656 -92.269531 36.890625 -90.46875 C 39.066406 -88.664062 40.15625 -86.019531 40.15625 -82.53125 C 40.15625 -81.789062 39.992188 -80.890625 39.671875 -79.828125 C 39.359375 -78.773438 39.046875 -77.71875 38.734375 -76.65625 Z M 21.265625 -26.828125 "/></g></g></g><g fill="#000000" fill-opacity="1"><g transform="translate(505.906402, 261.749983)"><g><path d="M 50.3125 -35.71875 C 51.894531 -33.914062 53.269531 -31.609375 54.4375 -28.796875 C 55.601562 -25.992188 56.1875 -22.582031 56.1875 -18.5625 C 56.1875 -18.144531 56.1875 -17.671875 56.1875 -17.140625 C 56.1875 -16.609375 56.132812 -16.078125 56.03125 -15.546875 C 62.375 -17.984375 67.875 -21.6875 72.53125 -26.65625 C 77.1875 -31.632812 80.890625 -38.039062 83.640625 -45.875 C 84.804688 -48.9375 86.421875 -51.179688 88.484375 -52.609375 C 90.546875 -54.046875 92.632812 -54.765625 94.75 -54.765625 C 97.1875 -54.765625 99.273438 -54.019531 101.015625 -52.53125 C 102.765625 -51.050781 103.640625 -48.9375 103.640625 -46.1875 C 103.640625 -44.914062 103.429688 -43.695312 103.015625 -42.53125 C 100.253906 -34.175781 97.078125 -27.191406 93.484375 -21.578125 C 89.890625 -15.972656 85.921875 -11.316406 81.578125 -7.609375 C 77.242188 -3.910156 72.535156 -0.898438 67.453125 1.421875 C 62.378906 3.753906 56.984375 5.820312 51.265625 7.625 C 50.097656 13.332031 47.898438 19.09375 44.671875 24.90625 C 41.453125 30.726562 37.539062 36.097656 32.9375 41.015625 C 28.332031 45.941406 23.359375 49.882812 18.015625 52.84375 C 12.671875 55.8125 7.25 57.296875 1.75 57.296875 C -3.4375 57.296875 -8.304688 56.238281 -12.859375 54.125 C -17.410156 52.007812 -21.085938 49.019531 -23.890625 45.15625 C -26.691406 41.289062 -28.09375 36.820312 -28.09375 31.75 C -28.09375 29.3125 -27.722656 26.820312 -26.984375 24.28125 C -25.503906 19.625 -23.097656 15.84375 -19.765625 12.9375 C -16.429688 10.03125 -12.410156 7.648438 -7.703125 5.796875 C -2.992188 3.941406 2.164062 2.273438 7.78125 0.796875 C 10.84375 0.0546875 14.4375 -0.757812 18.5625 -1.65625 C 22.695312 -2.5625 25.976562 -3.546875 28.40625 -4.609375 C 29.257812 -6.828125 29.6875 -9.523438 29.6875 -12.703125 C 29.6875 -14.710938 29.472656 -16.75 29.046875 -18.8125 C 28.617188 -20.875 27.878906 -22.695312 26.828125 -24.28125 C 24.179688 -23.113281 21.375 -22.53125 18.40625 -22.53125 C 15.550781 -22.53125 12.773438 -23.0625 10.078125 -24.125 C 7.378906 -25.1875 5.15625 -26.851562 3.40625 -29.125 C 1.664062 -31.394531 0.796875 -34.222656 0.796875 -37.609375 C 0.796875 -39.515625 1.242188 -41.738281 2.140625 -44.28125 C 3.035156 -46.820312 4.59375 -49.148438 6.8125 -51.265625 C 9.039062 -53.378906 12.164062 -54.753906 16.1875 -55.390625 C 16.820312 -55.492188 17.457031 -55.570312 18.09375 -55.625 C 18.726562 -55.675781 19.363281 -55.703125 20 -55.703125 C 22.644531 -55.703125 25.316406 -55.28125 28.015625 -54.4375 C 30.710938 -53.59375 33.066406 -52.269531 35.078125 -50.46875 C 36.347656 -51.53125 37.722656 -52.957031 39.203125 -54.75 C 40.679688 -56.550781 41.945312 -58.457031 43 -60.46875 C 44.0625 -62.476562 44.59375 -64.332031 44.59375 -66.03125 C 44.59375 -67.507812 44.035156 -68.75 42.921875 -69.75 C 41.816406 -70.757812 39.890625 -71.265625 37.140625 -71.265625 L 17.140625 -71.265625 C 13.960938 -71.265625 11.550781 -72.425781 9.90625 -74.75 C 8.269531 -77.082031 7.453125 -79.570312 7.453125 -82.21875 C 7.453125 -84.96875 8.296875 -87.476562 9.984375 -89.75 C 11.679688 -92.03125 14.28125 -93.171875 17.78125 -93.171875 L 38.734375 -93.171875 C 44.648438 -93.171875 49.859375 -92.03125 54.359375 -89.75 C 58.859375 -87.476562 62.375 -84.410156 64.90625 -80.546875 C 67.445312 -76.679688 68.71875 -72.367188 68.71875 -67.609375 C 68.71875 -60.835938 66.972656 -54.910156 63.484375 -49.828125 C 59.992188 -44.753906 55.601562 -40.050781 50.3125 -35.71875 Z M 22.375 16.671875 C 18.882812 17.515625 15.285156 18.539062 11.578125 19.75 C 7.878906 20.96875 4.65625 22.316406 1.90625 23.796875 C -0.84375 25.285156 -2.585938 26.984375 -3.328125 28.890625 C -3.859375 30.160156 -4.125 31.269531 -4.125 32.21875 C -4.125 33.59375 -3.671875 34.78125 -2.765625 35.78125 C -1.867188 36.789062 -0.523438 37.296875 1.265625 37.296875 C 2.859375 37.296875 4.894531 36.6875 7.375 35.46875 C 9.863281 34.25 12.457031 32.128906 15.15625 29.109375 C 17.851562 26.097656 20.257812 21.953125 22.375 16.671875 Z M 22.375 16.671875 "/></g></g></g><g fill="#000000" fill-opacity="1"><g transform="translate(584.148955, 261.749983)"><g><path d="M 87.9375 -44.28125 C 88.675781 -46.71875 90.019531 -48.488281 91.96875 -49.59375 C 93.925781 -50.707031 95.96875 -51.265625 98.09375 -51.265625 C 100.519531 -51.265625 102.765625 -50.601562 104.828125 -49.28125 C 106.890625 -47.957031 107.921875 -46.078125 107.921875 -43.640625 C 107.921875 -42.898438 107.765625 -42.054688 107.453125 -41.109375 C 103.535156 -28.835938 97.820312 -18.914062 90.3125 -11.34375 C 82.800781 -3.78125 73.703125 0 63.015625 0 C 55.285156 0 49.488281 -1.898438 45.625 -5.703125 C 41.769531 -9.515625 39.84375 -14.492188 39.84375 -20.640625 C 39.84375 -24.765625 40.632812 -28.941406 42.21875 -33.171875 C 42.539062 -34.015625 42.9375 -35.019531 43.40625 -36.1875 C 43.882812 -37.351562 43.859375 -37.828125 43.328125 -37.609375 C 42.585938 -37.296875 41.609375 -36.925781 40.390625 -36.5 C 39.171875 -36.082031 37.769531 -35.875 36.1875 -35.875 C 34.8125 -35.875 33.300781 -36.160156 31.65625 -36.734375 C 30.019531 -37.316406 28.359375 -38.40625 26.671875 -40 L 16.984375 -9.6875 C 15.921875 -6.507812 14.066406 -4.097656 11.421875 -2.453125 C 8.773438 -0.816406 6.023438 0 3.171875 0 C 0.523438 0 -1.851562 -0.738281 -3.96875 -2.21875 C -6.082031 -3.695312 -7.140625 -5.867188 -7.140625 -8.734375 C -7.140625 -9.679688 -6.984375 -10.789062 -6.671875 -12.0625 L 33.015625 -126.65625 C 34.390625 -130.46875 36.132812 -133.269531 38.25 -135.0625 C 40.363281 -136.863281 42.742188 -137.765625 45.390625 -137.765625 C 48.140625 -137.765625 50.625 -136.785156 52.84375 -134.828125 C 55.070312 -132.867188 56.1875 -130.144531 56.1875 -126.65625 C 56.1875 -125.707031 56.050781 -124.726562 55.78125 -123.71875 C 55.519531 -122.71875 55.179688 -121.632812 54.765625 -120.46875 L 44.921875 -92.0625 C 46.398438 -92.582031 47.773438 -92.894531 49.046875 -93 C 50.316406 -93.113281 51.691406 -93.171875 53.171875 -93.171875 C 57.828125 -93.171875 61.898438 -92.109375 65.390625 -89.984375 C 68.878906 -87.867188 71.628906 -85.066406 73.640625 -81.578125 C 75.648438 -78.085938 76.65625 -74.28125 76.65625 -70.15625 C 76.65625 -68.78125 76.523438 -67.347656 76.265625 -65.859375 C 76.003906 -64.378906 75.609375 -62.953125 75.078125 -61.578125 C 73.910156 -58.410156 72.347656 -55.789062 70.390625 -53.71875 C 68.429688 -51.65625 66.34375 -49.992188 64.125 -48.734375 C 66.238281 -46.503906 67.296875 -43.328125 67.296875 -39.203125 C 67.296875 -37.191406 67.054688 -35.390625 66.578125 -33.796875 C 66.109375 -32.210938 65.289062 -29.570312 64.125 -25.875 C 63.59375 -24.28125 63.328125 -22.847656 63.328125 -21.578125 C 63.328125 -20.835938 63.5625 -20.203125 64.03125 -19.671875 C 64.507812 -19.148438 65.28125 -18.890625 66.34375 -18.890625 C 70.363281 -18.890625 74.273438 -21.109375 78.078125 -25.546875 C 81.890625 -29.992188 85.175781 -36.238281 87.9375 -44.28125 Z M 32.859375 -57.609375 C 34.765625 -58.671875 37.300781 -59.203125 40.46875 -59.203125 C 41.320312 -59.203125 42.195312 -59.148438 43.09375 -59.046875 C 43.988281 -58.941406 44.914062 -58.78125 45.875 -58.5625 C 47.78125 -59.09375 49.5 -59.992188 51.03125 -61.265625 C 52.5625 -62.535156 53.695312 -64.070312 54.4375 -65.875 C 54.863281 -66.820312 55.078125 -67.828125 55.078125 -68.890625 C 55.078125 -70.679688 54.414062 -72.050781 53.09375 -73 C 51.769531 -73.957031 50.101562 -74.4375 48.09375 -74.4375 C 45.757812 -74.4375 43.484375 -73.695312 41.265625 -72.21875 C 39.046875 -70.738281 37.195312 -68.566406 35.71875 -65.703125 Z M 32.859375 -57.609375 "/></g></g></g><g fill="#000000" fill-opacity="1"><g transform="translate(667.311425, 261.749983)"><g><path d="M 21.90625 -27.296875 C 21.375 -25.710938 21.109375 -24.390625 21.109375 -23.328125 C 21.109375 -20.265625 22.644531 -18.734375 25.71875 -18.734375 C 27.832031 -18.734375 30.210938 -19.628906 32.859375 -21.421875 C 35.503906 -23.222656 38.09375 -26.238281 40.625 -30.46875 L 58.890625 -84.125 C 60.046875 -87.289062 61.679688 -89.585938 63.796875 -91.015625 C 65.921875 -92.453125 68.09375 -93.171875 70.3125 -93.171875 C 73.269531 -93.171875 75.941406 -92.164062 78.328125 -90.15625 C 80.710938 -88.144531 81.90625 -85.5 81.90625 -82.21875 C 81.90625 -80.945312 81.691406 -79.675781 81.265625 -78.40625 L 58.890625 -13.8125 C 65.128906 -16.976562 70.757812 -21.101562 75.78125 -26.1875 C 80.8125 -31.269531 84.804688 -37.832031 87.765625 -45.875 C 88.929688 -48.9375 90.546875 -51.179688 92.609375 -52.609375 C 94.671875 -54.046875 96.757812 -54.765625 98.875 -54.765625 C 101.3125 -54.765625 103.398438 -54.019531 105.140625 -52.53125 C 106.890625 -51.050781 107.765625 -48.9375 107.765625 -46.1875 C 107.765625 -44.914062 107.554688 -43.695312 107.140625 -42.53125 C 104.390625 -34.175781 100.945312 -27.0625 96.8125 -21.1875 C 92.6875 -15.3125 88.082031 -10.363281 83 -6.34375 C 77.925781 -2.320312 72.609375 1.007812 67.046875 3.65625 C 61.492188 6.300781 55.863281 8.519531 50.15625 10.3125 C 48.988281 13.59375 47.796875 16.925781 46.578125 20.3125 C 45.367188 23.695312 44.179688 27.082031 43.015625 30.46875 C 39.734375 39.675781 34.679688 46.445312 27.859375 50.78125 C 21.035156 55.125 13.707031 57.296875 5.875 57.296875 C 0.6875 57.296875 -4.175781 56.238281 -8.71875 54.125 C -13.269531 52.007812 -16.945312 49.019531 -19.75 45.15625 C -22.5625 41.289062 -23.96875 36.820312 -23.96875 31.75 C -23.96875 26.875 -22.878906 22.664062 -20.703125 19.125 C -18.535156 15.582031 -15.597656 12.59375 -11.890625 10.15625 C -8.191406 7.71875 -4.070312 5.679688 0.46875 4.046875 C 5.019531 2.410156 9.734375 1.0625 14.609375 0 C 9.421875 -1.0625 5.132812 -3.414062 1.75 -7.0625 C -1.632812 -10.707031 -3.328125 -15.234375 -3.328125 -20.640625 C -3.328125 -23.703125 -2.800781 -26.660156 -1.75 -29.515625 L 17.453125 -84.125 C 18.617188 -87.289062 20.257812 -89.585938 22.375 -91.015625 C 24.488281 -92.453125 26.660156 -93.171875 28.890625 -93.171875 C 31.847656 -93.171875 34.515625 -92.164062 36.890625 -90.15625 C 39.273438 -88.144531 40.46875 -85.5 40.46875 -82.21875 C 40.46875 -80.738281 40.148438 -79.097656 39.515625 -77.296875 Z M 21.109375 17.625 C 15.921875 19 11.53125 20.53125 7.9375 22.21875 C 4.34375 23.914062 1.960938 26.140625 0.796875 28.890625 C 0.367188 29.835938 0.15625 30.945312 0.15625 32.21875 C 0.15625 33.59375 0.578125 34.78125 1.421875 35.78125 C 2.273438 36.789062 3.597656 37.296875 5.390625 37.296875 C 7.828125 37.296875 10.15625 36.554688 12.375 35.078125 C 14.601562 33.597656 16.242188 31.375 17.296875 28.40625 Z M 21.109375 17.625 "/></g></g></g><g fill="#000000" fill-opacity="1"><g transform="translate(749.839068, 261.749983)"><g/></g></g><g fill="#000000" fill-opacity="1"><g transform="translate(810.465148, 261.749983)"><g><path d="M 15.546875 -74.28125 L 12.21875 -74.28125 C 9.789062 -74.28125 7.859375 -75.097656 6.421875 -76.734375 C 4.992188 -78.378906 4.28125 -80.3125 4.28125 -82.53125 C 4.28125 -85.070312 5.390625 -87.476562 7.609375 -89.75 C 9.835938 -92.03125 13.382812 -93.171875 18.25 -93.171875 L 22.375 -93.171875 L 32.0625 -120.46875 C 35.019531 -128.71875 39.539062 -134.800781 45.625 -138.71875 C 51.71875 -142.632812 58.148438 -144.59375 64.921875 -144.59375 C 69.578125 -144.59375 73.753906 -143.535156 77.453125 -141.421875 C 81.160156 -139.304688 84.097656 -136.394531 86.265625 -132.6875 C 88.429688 -128.988281 89.515625 -124.8125 89.515625 -120.15625 C 89.515625 -119.09375 89.4375 -118.054688 89.28125 -117.046875 C 89.125 -116.046875 88.9375 -114.960938 88.71875 -113.796875 C 87.875 -109.878906 86.285156 -107.070312 83.953125 -105.375 C 81.628906 -103.6875 79.195312 -102.84375 76.65625 -102.84375 C 73.90625 -102.84375 71.390625 -103.71875 69.109375 -105.46875 C 66.835938 -107.21875 65.703125 -109.46875 65.703125 -112.21875 C 65.703125 -113.695312 66.078125 -115.175781 66.828125 -116.65625 C 67.140625 -117.820312 67.296875 -118.828125 67.296875 -119.671875 C 67.296875 -121.046875 66.953125 -122.15625 66.265625 -123 C 65.578125 -123.851562 64.382812 -124.28125 62.6875 -124.28125 C 61.3125 -124.28125 59.960938 -123.722656 58.640625 -122.609375 C 57.316406 -121.492188 56.335938 -119.988281 55.703125 -118.09375 L 46.828125 -93.171875 L 53.328125 -93.171875 C 56.296875 -93.171875 58.570312 -92.296875 60.15625 -90.546875 C 61.738281 -88.804688 62.53125 -86.820312 62.53125 -84.59375 C 62.53125 -82.269531 61.628906 -80.019531 59.828125 -77.84375 C 58.035156 -75.675781 55.285156 -74.539062 51.578125 -74.4375 L 40 -74.28125 L -3.8125 50.625 C -5.082031 54.332031 -6.878906 57.003906 -9.203125 58.640625 C -11.535156 60.285156 -13.914062 61.109375 -16.34375 61.109375 C -19.3125 61.109375 -21.957031 60.101562 -24.28125 58.09375 C -26.613281 56.082031 -27.78125 53.4375 -27.78125 50.15625 C -27.78125 48.457031 -27.460938 46.765625 -26.828125 45.078125 Z M 15.546875 -74.28125 "/></g></g></g><g fill="#000000" fill-opacity="1"><g transform="translate(861.251369, 261.749983)"><g><path d="M 99.515625 -53.640625 C 101.847656 -53.640625 103.882812 -52.953125 105.625 -51.578125 C 107.375 -50.203125 108.25 -48.140625 108.25 -45.390625 C 108.25 -44.015625 107.878906 -42.269531 107.140625 -40.15625 C 106.398438 -38.039062 105.445312 -35.445312 104.28125 -32.375 C 100.894531 -23.800781 96.847656 -17.1875 92.140625 -12.53125 C 87.429688 -7.882812 82.5625 -4.632812 77.53125 -2.78125 C 72.507812 -0.925781 67.773438 0 63.328125 0 C 61.742188 0 59.601562 -0.207031 56.90625 -0.625 C 54.207031 -1.050781 51.507812 -1.875 48.8125 -3.09375 C 46.113281 -4.3125 43.914062 -6.140625 42.21875 -8.578125 C 39.257812 -5.929688 35.953125 -3.835938 32.296875 -2.296875 C 28.648438 -0.765625 24.972656 0 21.265625 0 C 16.609375 0 12.425781 -1.082031 8.71875 -3.25 C 5.019531 -5.414062 2.085938 -8.320312 -0.078125 -11.96875 C -2.242188 -15.625 -3.328125 -19.625 -3.328125 -23.96875 C -3.328125 -25.445312 -3.164062 -26.898438 -2.84375 -28.328125 C -2.53125 -29.753906 -2.164062 -31.15625 -1.75 -32.53125 L 13.171875 -75.234375 C 15.285156 -81.367188 18.878906 -85.890625 23.953125 -88.796875 C 29.035156 -91.710938 34.171875 -93.171875 39.359375 -93.171875 C 43.378906 -93.171875 46.894531 -92.691406 49.90625 -91.734375 C 52.925781 -90.785156 55.285156 -89.78125 56.984375 -88.71875 C 58.253906 -90.726562 59.945312 -92.234375 62.0625 -93.234375 C 64.175781 -94.242188 66.34375 -94.75 68.5625 -94.75 C 71.53125 -94.75 74.203125 -93.847656 76.578125 -92.046875 C 78.960938 -90.253906 80.15625 -87.613281 80.15625 -84.125 C 80.15625 -82.53125 79.835938 -80.785156 79.203125 -78.890625 L 61.421875 -27.453125 C 60.890625 -25.546875 60.625 -24.015625 60.625 -22.859375 C 60.625 -20.210938 62.054688 -18.890625 64.921875 -18.890625 C 67.347656 -18.890625 69.960938 -19.707031 72.765625 -21.34375 C 75.578125 -22.988281 78.359375 -25.710938 81.109375 -29.515625 C 83.859375 -33.328125 86.238281 -38.460938 88.25 -44.921875 C 89.195312 -47.984375 90.753906 -50.203125 92.921875 -51.578125 C 95.097656 -52.953125 97.296875 -53.640625 99.515625 -53.640625 Z M 47.140625 -55.234375 C 48.410156 -59.253906 49.046875 -62.375 49.046875 -64.59375 C 49.046875 -67.34375 48.359375 -69.429688 46.984375 -70.859375 C 45.609375 -72.296875 44.179688 -73.015625 42.703125 -73.015625 C 41.429688 -73.015625 39.816406 -72.40625 37.859375 -71.1875 C 35.898438 -69.96875 34.179688 -66.925781 32.703125 -62.0625 L 22.53125 -30.15625 C 22.320312 -29.414062 22.109375 -28.59375 21.890625 -27.6875 C 21.679688 -26.789062 21.578125 -25.816406 21.578125 -24.765625 C 21.578125 -20.847656 23.328125 -18.890625 26.828125 -18.890625 C 28.515625 -18.890625 30.628906 -19.707031 33.171875 -21.34375 C 35.710938 -22.988281 37.828125 -26.398438 39.515625 -31.578125 Z M 47.140625 -55.234375 "/></g></g></g><g fill="#000000" fill-opacity="1"><g transform="translate(944.572592, 261.749983)"><g><path d="M 90.953125 -46.03125 C 91.796875 -48.570312 93.164062 -50.421875 95.0625 -51.578125 C 96.96875 -52.742188 98.925781 -53.328125 100.9375 -53.328125 C 103.375 -53.328125 105.597656 -52.613281 107.609375 -51.1875 C 109.617188 -49.757812 110.625 -47.773438 110.625 -45.234375 C 110.625 -44.285156 110.46875 -43.332031 110.15625 -42.375 C 106.445312 -31.375 102.160156 -22.800781 97.296875 -16.65625 C 92.429688 -10.519531 87.351562 -6.207031 82.0625 -3.71875 C 76.769531 -1.238281 71.582031 0 66.5 0 C 61.738281 0 57.347656 -0.976562 53.328125 -2.9375 C 49.304688 -4.894531 46.132812 -7.566406 43.8125 -10.953125 C 40.84375 -7.773438 37.53125 -5.15625 33.875 -3.09375 C 30.226562 -1.03125 26.023438 0 21.265625 0 C 16.828125 0 12.804688 -0.894531 9.203125 -2.6875 C 5.609375 -4.488281 2.75 -7.03125 0.625 -10.3125 C -1.488281 -13.59375 -2.546875 -17.347656 -2.546875 -21.578125 C -2.546875 -24.335938 -2.066406 -27.144531 -1.109375 -30 L 17.453125 -84.125 C 18.617188 -87.289062 20.257812 -89.585938 22.375 -91.015625 C 24.488281 -92.453125 26.660156 -93.171875 28.890625 -93.171875 C 31.847656 -93.171875 34.515625 -92.164062 36.890625 -90.15625 C 39.273438 -88.144531 40.46875 -85.5 40.46875 -82.21875 C 40.46875 -80.738281 40.148438 -79.097656 39.515625 -77.296875 L 22.21875 -27.78125 C 21.6875 -25.976562 21.421875 -24.335938 21.421875 -22.859375 C 21.421875 -20.210938 22.640625 -18.890625 25.078125 -18.890625 C 28.253906 -18.890625 31.425781 -20.5 34.59375 -23.71875 C 37.769531 -26.945312 40.472656 -30.734375 42.703125 -35.078125 L 60.15625 -83.796875 C 61.320312 -87.179688 62.988281 -89.585938 65.15625 -91.015625 C 67.320312 -92.453125 69.570312 -93.171875 71.90625 -93.171875 C 74.757812 -93.171875 77.347656 -92.191406 79.671875 -90.234375 C 82.003906 -88.273438 83.171875 -85.707031 83.171875 -82.53125 C 83.171875 -81.789062 83.113281 -81.078125 83 -80.390625 C 82.894531 -79.703125 82.6875 -78.9375 82.375 -78.09375 L 63.484375 -25.078125 C 63.171875 -24.335938 63.015625 -23.546875 63.015625 -22.703125 C 63.015625 -21.640625 63.460938 -20.738281 64.359375 -20 C 65.253906 -19.257812 66.390625 -18.890625 67.765625 -18.890625 C 71.472656 -18.890625 75.363281 -21.03125 79.4375 -25.3125 C 83.507812 -29.601562 87.347656 -36.507812 90.953125 -46.03125 Z M 90.953125 -46.03125 "/></g></g></g><g fill="#000000" fill-opacity="1"><g transform="translate(1030.115662, 261.749983)"><g><path d="M 50.3125 -35.71875 C 51.894531 -33.914062 53.269531 -31.609375 54.4375 -28.796875 C 55.601562 -25.992188 56.1875 -22.582031 56.1875 -18.5625 C 56.1875 -18.144531 56.1875 -17.671875 56.1875 -17.140625 C 56.1875 -16.609375 56.132812 -16.078125 56.03125 -15.546875 C 62.375 -17.984375 67.875 -21.6875 72.53125 -26.65625 C 77.1875 -31.632812 80.890625 -38.039062 83.640625 -45.875 C 84.804688 -48.9375 86.421875 -51.179688 88.484375 -52.609375 C 90.546875 -54.046875 92.632812 -54.765625 94.75 -54.765625 C 97.1875 -54.765625 99.273438 -54.019531 101.015625 -52.53125 C 102.765625 -51.050781 103.640625 -48.9375 103.640625 -46.1875 C 103.640625 -44.914062 103.429688 -43.695312 103.015625 -42.53125 C 100.253906 -34.175781 97.078125 -27.191406 93.484375 -21.578125 C 89.890625 -15.972656 85.921875 -11.316406 81.578125 -7.609375 C 77.242188 -3.910156 72.535156 -0.898438 67.453125 1.421875 C 62.378906 3.753906 56.984375 5.820312 51.265625 7.625 C 50.097656 13.332031 47.898438 19.09375 44.671875 24.90625 C 41.453125 30.726562 37.539062 36.097656 32.9375 41.015625 C 28.332031 45.941406 23.359375 49.882812 18.015625 52.84375 C 12.671875 55.8125 7.25 57.296875 1.75 57.296875 C -3.4375 57.296875 -8.304688 56.238281 -12.859375 54.125 C -17.410156 52.007812 -21.085938 49.019531 -23.890625 45.15625 C -26.691406 41.289062 -28.09375 36.820312 -28.09375 31.75 C -28.09375 29.3125 -27.722656 26.820312 -26.984375 24.28125 C -25.503906 19.625 -23.097656 15.84375 -19.765625 12.9375 C -16.429688 10.03125 -12.410156 7.648438 -7.703125 5.796875 C -2.992188 3.941406 2.164062 2.273438 7.78125 0.796875 C 10.84375 0.0546875 14.4375 -0.757812 18.5625 -1.65625 C 22.695312 -2.5625 25.976562 -3.546875 28.40625 -4.609375 C 29.257812 -6.828125 29.6875 -9.523438 29.6875 -12.703125 C 29.6875 -14.710938 29.472656 -16.75 29.046875 -18.8125 C 28.617188 -20.875 27.878906 -22.695312 26.828125 -24.28125 C 24.179688 -23.113281 21.375 -22.53125 18.40625 -22.53125 C 15.550781 -22.53125 12.773438 -23.0625 10.078125 -24.125 C 7.378906 -25.1875 5.15625 -26.851562 3.40625 -29.125 C 1.664062 -31.394531 0.796875 -34.222656 0.796875 -37.609375 C 0.796875 -39.515625 1.242188 -41.738281 2.140625 -44.28125 C 3.035156 -46.820312 4.59375 -49.148438 6.8125 -51.265625 C 9.039062 -53.378906 12.164062 -54.753906 16.1875 -55.390625 C 16.820312 -55.492188 17.457031 -55.570312 18.09375 -55.625 C 18.726562 -55.675781 19.363281 -55.703125 20 -55.703125 C 22.644531 -55.703125 25.316406 -55.28125 28.015625 -54.4375 C 30.710938 -53.59375 33.066406 -52.269531 35.078125 -50.46875 C 36.347656 -51.53125 37.722656 -52.957031 39.203125 -54.75 C 40.679688 -56.550781 41.945312 -58.457031 43 -60.46875 C 44.0625 -62.476562 44.59375 -64.332031 44.59375 -66.03125 C 44.59375 -67.507812 44.035156 -68.75 42.921875 -69.75 C 41.816406 -70.757812 39.890625 -71.265625 37.140625 -71.265625 L 17.140625 -71.265625 C 13.960938 -71.265625 11.550781 -72.425781 9.90625 -74.75 C 8.269531 -77.082031 7.453125 -79.570312 7.453125 -82.21875 C 7.453125 -84.96875 8.296875 -87.476562 9.984375 -89.75 C 11.679688 -92.03125 14.28125 -93.171875 17.78125 -93.171875 L 38.734375 -93.171875 C 44.648438 -93.171875 49.859375 -92.03125 54.359375 -89.75 C 58.859375 -87.476562 62.375 -84.410156 64.90625 -80.546875 C 67.445312 -76.679688 68.71875 -72.367188 68.71875 -67.609375 C 68.71875 -60.835938 66.972656 -54.910156 63.484375 -49.828125 C 59.992188 -44.753906 55.601562 -40.050781 50.3125 -35.71875 Z M 22.375 16.671875 C 18.882812 17.515625 15.285156 18.539062 11.578125 19.75 C 7.878906 20.96875 4.65625 22.316406 1.90625 23.796875 C -0.84375 25.285156 -2.585938 26.984375 -3.328125 28.890625 C -3.859375 30.160156 -4.125 31.269531 -4.125 32.21875 C -4.125 33.59375 -3.671875 34.78125 -2.765625 35.78125 C -1.867188 36.789062 -0.523438 37.296875 1.265625 37.296875 C 2.859375 37.296875 4.894531 36.6875 7.375 35.46875 C 9.863281 34.25 12.457031 32.128906 15.15625 29.109375 C 17.851562 26.097656 20.257812 21.953125 22.375 16.671875 Z M 22.375 16.671875 "/></g></g></g><g fill="#000000" fill-opacity="1"><g transform="translate(1108.358225, 261.749983)"><g><path d="M 42.703125 -107.765625 C 39.097656 -107.765625 36.023438 -109.0625 33.484375 -111.65625 C 30.953125 -114.25 29.6875 -117.34375 29.6875 -120.9375 C 29.6875 -124.539062 30.953125 -127.582031 33.484375 -130.0625 C 36.023438 -132.550781 39.097656 -133.796875 42.703125 -133.796875 C 46.296875 -133.796875 49.359375 -132.550781 51.890625 -130.0625 C 54.429688 -127.582031 55.703125 -124.539062 55.703125 -120.9375 C 55.703125 -117.34375 54.429688 -114.25 51.890625 -111.65625 C 49.359375 -109.0625 46.296875 -107.765625 42.703125 -107.765625 Z M 21.265625 -26.828125 C 20.953125 -25.867188 20.796875 -25.019531 20.796875 -24.28125 C 20.796875 -22.800781 21.347656 -21.53125 22.453125 -20.46875 C 23.566406 -19.414062 25.023438 -18.890625 26.828125 -18.890625 C 29.992188 -18.890625 33.5625 -20.84375 37.53125 -24.75 C 41.5 -28.664062 45.335938 -35.757812 49.046875 -46.03125 C 49.992188 -48.457031 51.445312 -50.253906 53.40625 -51.421875 C 55.363281 -52.585938 57.398438 -53.171875 59.515625 -53.171875 C 61.953125 -53.171875 64.148438 -52.457031 66.109375 -51.03125 C 68.066406 -49.601562 69.046875 -47.671875 69.046875 -45.234375 C 69.046875 -44.285156 68.882812 -43.332031 68.5625 -42.375 C 64.863281 -31.476562 60.601562 -22.929688 55.78125 -16.734375 C 50.96875 -10.546875 45.890625 -6.207031 40.546875 -3.71875 C 35.203125 -1.238281 29.941406 0 24.765625 0 C 19.890625 0 15.414062 -0.925781 11.34375 -2.78125 C 7.269531 -4.632812 3.988281 -7.304688 1.5 -10.796875 C -0.976562 -14.285156 -2.21875 -18.515625 -2.21875 -23.484375 C -2.21875 -24.859375 -1.953125 -26.5 -1.421875 -28.40625 C -0.898438 -30.3125 -0.425781 -32.054688 0 -33.640625 C 1.695312 -38.617188 3.519531 -43.910156 5.46875 -49.515625 C 7.425781 -55.128906 9.382812 -60.738281 11.34375 -66.34375 C 13.300781 -71.945312 15.128906 -77.238281 16.828125 -82.21875 C 18.097656 -85.914062 19.921875 -88.664062 22.296875 -90.46875 C 24.679688 -92.269531 27.085938 -93.171875 29.515625 -93.171875 C 32.265625 -93.171875 34.722656 -92.269531 36.890625 -90.46875 C 39.066406 -88.664062 40.15625 -86.019531 40.15625 -82.53125 C 40.15625 -81.789062 39.992188 -80.890625 39.671875 -79.828125 C 39.359375 -78.773438 39.046875 -77.71875 38.734375 -76.65625 Z M 21.265625 -26.828125 "/></g></g></g></svg>